<?xml version="1.0" encoding="iso-8859-1"?>
<!-- Generator: Adobe Illustrator 19.0.0, SVG Export Plug-In . SVG Version: 6.00 Build 0)  -->
<svg version="1.1" id="Capa_1" xmlns="http://www.w3.org/2000/svg" xmlns:xlink="http://www.w3.org/1999/xlink" x="0px" y="0px"
	 viewBox="0 0 463 463" style="enable-background:new 0 0 463 463;" xml:space="preserve">
<path d="M431.5,88h-400C14.131,88,0,102.131,0,119.5S14.131,151,31.5,151H32v16.5c0,8.547,6.953,15.5,15.5,15.5H48v177h-0.5
	c-4.142,0-7.5,3.357-7.5,7.5s3.358,7.5,7.5,7.5h48c4.142,0,7.5-3.357,7.5-7.5s-3.358-7.5-7.5-7.5H95V215h273v145h-0.5
	c-4.142,0-7.5,3.357-7.5,7.5s3.358,7.5,7.5,7.5h48c4.142,0,7.5-3.357,7.5-7.5s-3.358-7.5-7.5-7.5H415V183h0.5
	c8.547,0,15.5-6.953,15.5-15.5V151h0.5c17.369,0,31.5-14.131,31.5-31.5S448.869,88,431.5,88z M375.5,128c-4.687,0-8.5-3.813-8.5-8.5
	s3.813-8.5,8.5-8.5s8.5,3.813,8.5,8.5S380.187,128,375.5,128z M358.787,136h-62.573c4.193-4.246,6.787-10.075,6.787-16.5
	s-2.594-12.254-6.787-16.5h19.565c-1.739,2.392-2.778,5.323-2.778,8.5c0,7.995,6.505,14.5,14.5,14.5s14.5-6.505,14.5-14.5
	c0-3.177-1.039-6.108-2.778-8.5h19.565c-4.193,4.246-6.787,10.075-6.787,16.5S354.594,131.754,358.787,136z M87.5,111
	c4.687,0,8.5,3.813,8.5,8.5s-3.813,8.5-8.5,8.5s-8.5-3.813-8.5-8.5S82.813,111,87.5,111z M104.213,103h19.565
	c-1.739,2.392-2.778,5.323-2.778,8.5c0,7.995,6.505,14.5,14.5,14.5s14.5-6.505,14.5-14.5c0-3.177-1.039-6.108-2.778-8.5h19.565
	c-4.193,4.246-6.787,10.075-6.787,16.5s2.594,12.254,6.787,16.5h-62.573c4.193-4.246,6.787-10.075,6.787-16.5
	S108.406,107.246,104.213,103z M183.5,128c-4.687,0-8.5-3.813-8.5-8.5s3.813-8.5,8.5-8.5s8.5,3.813,8.5,8.5S188.187,128,183.5,128z
	 M200.213,103h19.565c-1.739,2.392-2.778,5.323-2.778,8.5c0,7.995,6.505,14.5,14.5,14.5s14.5-6.505,14.5-14.5
	c0-3.177-1.039-6.108-2.778-8.5h19.565c-4.193,4.246-6.787,10.075-6.787,16.5s2.594,12.254,6.787,16.5h-62.573
	c4.193-4.246,6.787-10.075,6.787-16.5S204.406,107.246,200.213,103z M279.5,128c-4.687,0-8.5-3.813-8.5-8.5s3.813-8.5,8.5-8.5
	s8.5,3.813,8.5,8.5S284.187,128,279.5,128z M15,119.5c0-7.679,5.28-14.13,12.395-15.962C25.885,105.825,25,108.56,25,111.5
	c0,7.995,6.505,14.5,14.5,14.5S54,119.495,54,111.5c0-3.177-1.039-6.108-2.778-8.5h19.565C66.594,107.246,64,113.075,64,119.5
	s2.594,12.254,6.787,16.5H31.5C22.402,136,15,128.599,15,119.5z M400,360h-17V207.5c0-4.143-3.358-7.5-7.5-7.5h-288
	c-4.142,0-7.5,3.357-7.5,7.5V360H63V183h337V360z M416,167.5c0,0.275-0.224,0.5-0.5,0.5h-368c-0.276,0-0.5-0.225-0.5-0.5V151h369
	V167.5z M431.5,136h-39.287c4.193-4.246,6.787-10.075,6.787-16.5s-2.594-12.254-6.787-16.5h19.565
	c-1.739,2.392-2.778,5.323-2.778,8.5c0,7.995,6.505,14.5,14.5,14.5s14.5-6.505,14.5-14.5c0-2.94-0.885-5.675-2.395-7.962
	C442.72,105.37,448,111.821,448,119.5C448,128.599,440.598,136,431.5,136z"/>
<g>
</g>
<g>
</g>
<g>
</g>
<g>
</g>
<g>
</g>
<g>
</g>
<g>
</g>
<g>
</g>
<g>
</g>
<g>
</g>
<g>
</g>
<g>
</g>
<g>
</g>
<g>
</g>
<g>
</g>
</svg>
