<?xml version="1.0" standalone="no"?>
<!DOCTYPE svg PUBLIC "-//W3C//DTD SVG 20010904//EN"
 "http://www.w3.org/TR/2001/REC-SVG-20010904/DTD/svg10.dtd">
<svg version="1.0" xmlns="http://www.w3.org/2000/svg"
 width="1212.000000pt" height="322.000000pt" viewBox="0 0 1212.000000 322.000000"
 preserveAspectRatio="xMidYMid meet">
<metadata>
Created by potrace 1.16, written by Peter Selinger 2001-2019
</metadata>
<g transform="translate(0.000000,322.000000) scale(0.100000,-0.100000)"
fill="#000000" stroke="none">
<path d="M1748 2842 c-18 -2 -29 -10 -30 -20 0 -9 -2 -30 -3 -46 -2 -34 -28
-56 -65 -56 -28 0 -36 -2 -159 -41 l-73 -23 -17 22 c-9 12 -23 31 -31 43 l-16
22 -39 -20 c-64 -31 -183 -103 -197 -120 -10 -12 -9 -21 5 -45 9 -16 17 -37
17 -46 0 -9 -30 -46 -67 -82 -38 -36 -83 -82 -101 -103 -33 -38 -58 -42 -87
-16 -5 5 -21 9 -35 9 -21 0 -32 -11 -57 -52 -106 -181 -109 -194 -48 -223 19
-9 35 -19 35 -23 0 -4 -8 -30 -18 -57 -10 -28 -24 -77 -31 -110 -30 -141 -26
-135 -80 -135 -60 0 -61 -3 -61 -153 0 -134 6 -147 66 -147 27 0 46 -5 48 -13
2 -6 12 -46 21 -87 9 -41 26 -101 37 -133 11 -32 18 -59 16 -61 -38 -24 -78
-60 -78 -71 0 -8 17 -42 37 -77 21 -35 47 -81 59 -103 32 -58 46 -63 93 -37
l39 22 106 -105 c58 -58 106 -112 106 -119 0 -7 -7 -27 -15 -43 -8 -17 -13
-38 -9 -46 6 -16 211 -137 232 -137 7 0 22 16 34 35 27 42 39 42 168 5 41 -12
93 -24 115 -28 39 -7 40 -9 47 -56 4 -27 13 -53 20 -57 7 -5 68 -9 134 -9 134
0 144 4 149 62 l2 33 182 3 181 2 0 -38 c0 -21 5 -43 12 -50 17 -17 262 -17
276 1 6 6 12 28 14 47 l3 35 168 3 167 2 0 -38 c0 -21 5 -43 12 -50 17 -17
259 -17 276 0 7 7 12 29 12 50 l0 38 170 0 170 0 0 -38 c0 -21 5 -43 12 -50
17 -17 259 -17 276 0 7 7 12 29 12 50 l0 38 168 -2 167 -3 3 -40 c2 -22 9 -43
15 -47 7 -4 69 -8 139 -8 141 0 148 3 148 70 l0 30 168 -2 167 -3 3 -40 c2
-22 9 -43 15 -47 7 -4 66 -8 133 -8 136 0 154 8 154 69 l0 31 163 -2 162 -3 3
-35 c2 -19 8 -41 14 -47 14 -18 259 -18 276 -1 7 7 12 29 12 50 l0 38 168 -2
167 -3 3 -35 c6 -57 12 -60 148 -60 138 0 154 7 154 66 l0 34 165 0 165 0 0
-33 c0 -58 20 -67 156 -67 65 0 124 4 131 8 7 4 14 25 16 47 l4 40 167 3 166
2 0 -34 c0 -59 16 -66 154 -66 136 0 142 3 148 60 l3 35 168 3 167 2 0 -38 c0
-21 5 -43 12 -50 17 -17 259 -17 276 0 7 7 12 29 12 50 l0 38 170 0 170 0 0
-38 c0 -21 5 -43 12 -50 17 -17 259 -17 276 0 7 7 12 29 12 50 l0 38 168 -2
167 -3 3 -35 c2 -19 8 -41 14 -47 14 -18 259 -18 276 -1 7 7 12 29 12 50 l0
38 182 -2 182 -3 2 -33 c3 -58 13 -62 148 -62 66 0 127 4 134 9 7 4 16 30 20
57 6 42 11 49 32 52 24 4 163 40 226 60 36 11 42 9 73 -36 20 -28 28 -32 49
-27 14 3 37 14 51 24 14 10 56 35 93 55 36 20 69 44 72 52 3 9 -2 34 -13 56
l-18 41 109 108 110 109 37 -22 c21 -12 45 -19 54 -15 9 3 28 28 42 54 13 26
38 71 55 98 52 85 52 93 -5 126 -19 12 -35 24 -35 28 0 3 8 29 18 56 10 28 24
77 31 110 29 131 23 119 72 125 24 3 50 9 57 13 17 11 17 258 0 275 -7 7 -31
12 -55 12 -47 0 -42 -10 -74 135 -7 33 -21 82 -31 109 -20 55 -15 67 34 92 15
8 28 22 28 31 0 16 -92 186 -118 216 -19 22 -46 22 -83 0 l-29 -17 -96 97
c-53 53 -100 97 -105 97 -14 0 -10 49 6 73 20 31 9 63 -28 82 -33 16 -57 30
-138 78 -54 32 -70 28 -100 -19 -24 -39 -30 -40 -101 -15 -29 11 -78 24 -108
31 -105 22 -104 21 -112 69 -4 25 -11 48 -15 52 -5 5 -66 9 -137 10 -145 2
-156 -3 -156 -68 l0 -33 -177 2 -178 3 -3 37 c-2 20 -9 41 -16 47 -15 13 -263
18 -276 5 -5 -5 -10 -27 -12 -49 l-3 -40 -165 0 -165 0 -5 45 -5 45 -110 5
c-60 3 -126 3 -145 0 -33 -5 -35 -8 -40 -50 l-5 -45 -165 0 -165 0 -5 45 -5
45 -145 0 -145 0 -5 -45 -5 -45 -159 -3 c-174 -3 -176 -2 -176 55 0 17 -4 34
-8 37 -5 3 -65 6 -134 7 -145 3 -158 -2 -158 -62 l0 -39 -160 0 c-147 0 -160
1 -170 19 -5 11 -10 31 -10 45 0 14 -4 27 -8 30 -5 3 -65 6 -134 7 -145 3
-158 -2 -158 -62 l0 -39 -162 2 -163 3 -6 38 c-3 21 -10 42 -15 47 -11 11
-255 17 -271 7 -7 -5 -13 -18 -13 -30 0 -12 -3 -32 -6 -45 -6 -22 -7 -22 -168
-20 l-161 3 -3 25 c-8 76 3 71 -155 68 l-142 -3 -5 -45 -5 -45 -162 -3 -163
-2 0 33 c0 64 -9 68 -160 65 l-135 -3 -3 -35 c-6 -59 -9 -60 -183 -60 l-159 0
0 39 c0 21 -6 44 -14 50 -9 8 -57 11 -147 9 l-134 -3 -5 -45 -5 -45 -165 0
-165 0 -3 25 c-8 76 3 71 -155 68 l-142 -3 -5 -45 -5 -45 -165 0 -165 0 -5 45
-5 45 -145 0 -145 0 -5 -45 -5 -45 -165 0 -165 0 -5 45 -5 45 -142 3 c-158 3
-147 8 -155 -68 l-3 -25 -177 -3 c-139 -2 -178 0 -179 10 -3 56 -6 69 -14 77
-10 9 -204 19 -257 13z m8714 -298 c372 -116 610 -349 717 -704 59 -194 47
-417 -32 -625 -105 -273 -329 -491 -596 -582 -168 -57 149 -53 -4511 -53
-4539 0 -4330 -2 -4475 40 -134 39 -278 125 -393 234 -216 205 -339 536 -302
815 34 259 119 439 287 608 100 101 181 155 343 227 46 20 142 46 210 56 30 4
1997 7 4370 6 l4315 -2 67 -20z"/>
<path d="M1790 2424 c-242 -19 -468 -148 -622 -354 -55 -73 -104 -179 -136
-290 -20 -72 -23 -324 -3 -395 73 -274 236 -475 475 -585 44 -21 92 -40 106
-43 14 -3 56 -13 95 -21 80 -18 248 -21 309 -5 22 6 59 15 81 21 181 47 365
180 474 343 181 270 198 592 48 879 -156 296 -487 476 -827 450z m130 -139
c66 -34 80 -136 26 -191 -61 -61 -165 -33 -195 51 -12 35 -11 45 2 77 28 67
104 95 167 63z m-411 -193 c26 -21 34 -37 38 -73 7 -61 -14 -100 -67 -124 -36
-16 -46 -17 -78 -5 -56 20 -82 56 -82 114 0 43 4 53 36 82 47 45 104 47 153 6z
m849 8 c113 -69 23 -252 -103 -210 -48 16 -75 57 -75 115 0 40 5 52 34 81 41
41 92 46 144 14z m-369 -182 c82 -29 156 -95 202 -180 32 -60 33 -68 33 -163
0 -90 -3 -106 -29 -158 -56 -113 -151 -183 -277 -207 -138 -25 -279 38 -360
162 -49 76 -61 121 -56 219 4 104 36 178 102 242 107 102 247 133 385 85z
m-657 -254 c36 -33 51 -80 37 -121 -18 -56 -55 -82 -115 -83 -47 0 -55 3 -83
35 -24 27 -31 45 -31 76 0 45 29 95 64 110 32 13 104 4 128 -17z m1197 11 c39
-20 64 -76 56 -125 -19 -112 -189 -124 -225 -16 -34 104 71 192 169 141z
m-1018 -443 c25 -23 33 -38 36 -78 5 -43 2 -54 -21 -81 -52 -61 -118 -63 -178
-5 -23 21 -28 34 -28 75 0 42 5 54 34 83 29 29 41 34 80 34 36 0 52 -6 77 -28z
m865 -8 c34 -35 36 -40 32 -86 -9 -86 -85 -136 -159 -104 -48 20 -69 55 -69
113 1 74 40 112 117 113 36 0 48 -6 79 -36z m-430 -180 c28 -29 34 -43 34 -79
0 -36 -6 -50 -34 -79 -29 -31 -40 -36 -79 -36 -84 0 -144 80 -114 153 24 56
54 77 110 77 44 0 54 -4 83 -36z"/>
<path d="M1791 1821 c-50 -13 -112 -63 -146 -116 -27 -44 -30 -57 -30 -129 0
-96 21 -144 85 -198 46 -40 97 -58 165 -58 75 0 121 19 174 71 81 80 102 182
57 281 -28 63 -51 88 -109 123 -48 28 -139 40 -196 26z"/>
<path d="M10110 2420 c-276 -33 -531 -212 -655 -460 -145 -291 -119 -620 70
-885 111 -155 284 -277 460 -323 98 -26 140 -32 235 -32 327 0 637 198 770
494 61 134 74 198 74 361 0 167 -14 233 -79 370 -104 222 -334 406 -575 460
-75 17 -221 24 -300 15z m168 -140 c47 -29 68 -82 51 -133 -32 -96 -151 -116
-206 -34 -73 107 46 233 155 167z m-412 -193 c31 -28 36 -38 36 -79 0 -87 -70
-143 -146 -118 -131 43 -102 230 37 230 28 0 46 -8 73 -33z m834 18 c42 -22
60 -53 60 -105 0 -51 -19 -80 -67 -104 -42 -21 -58 -20 -104 6 -29 16 -42 32
-50 59 -33 109 63 195 161 144z m-389 -176 c113 -36 190 -101 238 -201 26 -56
31 -77 31 -143 0 -91 -13 -142 -53 -207 -54 -89 -136 -143 -255 -168 -151 -31
-311 54 -387 207 -27 53 -30 67 -29 158 0 89 3 106 28 153 69 134 186 210 327
211 36 1 81 -4 100 -10z m-653 -250 c52 -18 79 -79 61 -142 -14 -52 -51 -77
-111 -77 -41 0 -54 5 -78 28 -38 38 -47 89 -25 136 28 59 84 79 153 55z m1254
-28 c41 -45 39 -107 -3 -156 -28 -31 -36 -35 -81 -35 -66 0 -101 25 -118 83
-10 37 -9 49 3 73 30 57 62 75 127 70 34 -3 51 -11 72 -35z m-1063 -405 c34
-18 51 -54 51 -111 0 -78 -80 -131 -152 -100 -55 23 -73 50 -73 112 0 49 3 58
33 84 37 33 94 39 141 15z m877 -20 c28 -28 34 -42 34 -76 0 -91 -76 -149
-153 -116 -89 38 -106 135 -34 199 47 41 108 38 153 -7z m-435 -170 c39 -34
54 -86 36 -128 -24 -55 -52 -73 -114 -73 -51 0 -58 3 -84 35 -41 49 -40 106 2
155 28 32 36 35 83 35 39 -1 57 -6 77 -24z"/>
<path d="M10137 1816 c-224 -83 -238 -378 -22 -477 55 -25 147 -24 205 2 78
35 117 83 145 176 28 94 -25 219 -115 275 -57 35 -155 46 -213 24z"/>
</g>
</svg>
