<?xml version="1.0" encoding="iso-8859-1"?>
<!-- Generator: Adobe Illustrator 19.0.0, SVG Export Plug-In . SVG Version: 6.00 Build 0)  -->
<svg version="1.1" id="Layer_1" xmlns="http://www.w3.org/2000/svg" xmlns:xlink="http://www.w3.org/1999/xlink" x="0px" y="0px"
	 viewBox="0 0 496 496" style="enable-background:new 0 0 496 496;" xml:space="preserve">
<g>
	<g>
		<g>
			<path d="M64,424c-13.232,0-24,10.768-24,24s10.768,24,24,24s24-10.768,24-24S77.232,424,64,424z M64,456c-4.408,0-8-3.584-8-8
				c0-4.416,3.592-8,8-8s8,3.584,8,8C72,452.416,68.408,456,64,456z"/>
			<path d="M272,400c-17.648,0-32,14.352-32,32s14.352,32,32,32s32-14.352,32-32S289.648,400,272,400z M272,448
				c-8.824,0-16-7.176-16-16c0-8.824,7.176-16,16-16c8.824,0,16,7.176,16,16C288,440.824,280.824,448,272,448z"/>
			<path d="M352,0v104v8v104v8v104v8v104h-16V192h-40h-8h-16v16h16v162.104c-0.496-0.128-0.992-0.272-1.496-0.384L230,176H72
				c-13.232,0-24,10.768-24,24v112H33.888c-9.152,0-17.368,5.088-21.464,13.264l-9.888,19.784C0.872,348.36,0,352.072,0,355.784V456
				h16.72c3.824,22.664,23.536,40,47.28,40s43.448-17.336,47.28-40h101.432c9.52,23.424,32.488,40,59.288,40
				s49.768-16.576,59.288-40H352h8h136V336v-8V224v-8V112v-8V0H352z M96,192h122l51.336,176H268.4l-50.2-78.88l11.464-11.464
				l-11.312-11.312l-32,32l11.312,11.312l8.944-8.944L249.424,368H216v-19.312L195.312,328H96V192z M200,355.312V368h-66.664l-32-24
				h87.352L200,355.312z M64,480c-17.648,0-32-14.352-32-32s14.352-32,32-32s32,14.352,32,32S81.648,480,64,480z M208.552,440
				H111.28c-3.824-22.664-23.536-40-47.28-40s-43.448,17.336-47.28,40H16v-64h16v16h16v-16h16v16h16v-16h16v-16H16v-4.216
				c0-1.24,0.296-2.48,0.84-3.584l9.888-19.784c1.368-2.72,4.112-4.416,7.16-4.416H64V200c0-4.416,3.592-8,8-8h8v156l16,12
				l85.336,64h27.224c-0.336,2.624-0.56,5.288-0.56,8C208,434.712,208.224,437.376,208.552,440z M186.672,408l-32-24h75.136
				c-7.416,6.528-13.32,14.704-17.096,24H186.672z M272,480c-26.472,0-48-21.528-48-48s21.528-48,48-48s48,21.528,48,48
				S298.472,480,272,480z M320,389.808c-4.576-5.2-9.976-9.648-16-13.152V208h16V389.808z M416,16h16v32h-16V16z M480,440H368v-96
				h32v48h48v-48h32V440z M416,376v-32h16v32H416z M480,328H368v-96h32v48h48v-48h32V328z M416,264v-32h16v32H416z M480,216H368v-96
				h32v48h48v-48h32V216z M416,152v-32h16v32H416z M480,104H368V16h32v48h48V16h32V104z"/>
		</g>
	</g>
</g>
<g>
</g>
<g>
</g>
<g>
</g>
<g>
</g>
<g>
</g>
<g>
</g>
<g>
</g>
<g>
</g>
<g>
</g>
<g>
</g>
<g>
</g>
<g>
</g>
<g>
</g>
<g>
</g>
<g>
</g>
</svg>
