<?xml version="1.0" standalone="no"?>
<!DOCTYPE svg PUBLIC "-//W3C//DTD SVG 20010904//EN"
 "http://www.w3.org/TR/2001/REC-SVG-20010904/DTD/svg10.dtd">
<svg version="1.0" xmlns="http://www.w3.org/2000/svg"
 width="1648.000000pt" height="1488.000000pt" viewBox="0 0 1648.000000 1488.000000"
 preserveAspectRatio="xMidYMid meet">
<metadata>
Created by potrace 1.16, written by Peter Selinger 2001-2019
</metadata>
<g transform="translate(0.000000,1488.000000) scale(0.100000,-0.100000)"
fill="#000000" stroke="none">
<path d="M1190 13740 l0 -870 1100 0 1100 0 0 -865 0 -865 -1100 0 -1100 0 0
-865 0 -865 2600 0 2600 0 0 550 0 550 2228 0 2227 0 25 -37 c14 -21 73 -88
133 -149 l107 -111 0 -2212 0 -2211 -5275 0 -5275 0 0 -950 0 -950 395 0 395
0 0 -1810 0 -1810 6850 0 6850 0 0 1810 0 1810 395 0 395 0 0 950 0 950 -710
0 -710 0 0 2208 0 2208 36 35 c90 85 264 295 340 409 197 297 316 597 381 960
23 127 26 174 27 380 1 241 -6 323 -46 515 -128 626 -513 1189 -1058 1548
-129 84 -390 214 -527 261 -270 93 -498 130 -793 131 -227 0 -322 -10 -525
-52 -531 -110 -1046 -426 -1380 -845 l-30 -38 -2227 0 -2228 0 0 550 0 550
-2600 0 -2600 0 0 -870z m4720 -1730 l0 -2120 -2120 0 -2120 0 0 390 0 390
1100 0 1100 0 0 1340 0 1340 -1100 0 -1100 0 0 390 0 390 2120 0 2120 0 0
-2120z m6998 1330 c450 -49 839 -315 1051 -721 103 -196 145 -375 145 -614 0
-333 -103 -611 -324 -873 -223 -264 -574 -440 -917 -459 l-93 -6 0 240 0 240
83 6 c109 9 184 29 293 82 215 104 372 287 447 520 30 94 32 109 32 250 0 180
-18 255 -98 410 -44 85 -67 115 -152 200 -85 85 -115 108 -200 152 -155 80
-230 98 -410 98 -141 0 -156 -2 -250 -32 -111 -36 -231 -103 -319 -178 -156
-135 -267 -353 -284 -556 l-7 -84 -239 -3 -239 -2 6 87 c6 112 29 220 73 353
154 464 585 817 1080 884 125 17 200 19 322 6z m-4078 -1330 l0 -240 -315 0
-315 0 0 240 0 240 315 0 315 0 0 -240z m950 0 l0 -240 -320 0 -320 0 0 240 0
240 320 0 320 0 0 -240z m3310 -3150 l0 -240 -320 0 -320 0 0 240 0 240 320 0
320 0 0 -240z m0 -950 l0 -240 -320 0 -320 0 0 240 0 240 320 0 320 0 0 -240z
m2270 -3070 l0 -470 -7160 0 -7160 0 0 470 0 470 7160 0 7160 0 0 -470z
m-5430 -3070 l0 -240 -2440 0 -2440 0 0 240 0 240 2440 0 2440 0 0 -240z
m1420 0 l0 -240 -395 0 -395 0 0 240 0 240 395 0 395 0 0 -240z"/>
</g>
</svg>
