<?xml version="1.0" encoding="iso-8859-1"?>
<!-- Generator: Adobe Illustrator 19.0.0, SVG Export Plug-In . SVG Version: 6.00 Build 0)  -->
<svg version="1.1" id="Layer_1" xmlns="http://www.w3.org/2000/svg" xmlns:xlink="http://www.w3.org/1999/xlink" x="0px" y="0px"
	 viewBox="0 0 512 512" style="enable-background:new 0 0 512 512;" xml:space="preserve">
<g>
	<g>
		<rect x="178.935" y="44.039" width="22.025" height="16.544"/>
	</g>
</g>
<g>
	<g>
		<rect x="211.967" y="44.039" width="22.014" height="16.544"/>
	</g>
</g>
<g>
	<g>
		<path d="M476.206,0H22.02v512h368.865V313.82h60.56v-33.032h24.759c5.538,0,13.775-4.629,13.775-17.382V17.382
			C489.981,7.147,484.317,0,476.206,0z M38.562,115.639h0.001H82.58V319.29H53.56l13.763,82.607h15.256v33.01H38.562V115.639z
			 M170.658,159.678v44.039h71.589v-44.039h27.527v-44.039h44.017V319.29H99.124V115.639h44.006v44.039H170.658z M159.673,143.135
			v-27.495h93.559v27.495H159.673z M225.704,159.678v27.495h-38.502v-27.495H225.704z M339.817,335.833l-8.25,49.52H81.338v0
			l-2.747-16.488h226.952v-16.544H75.835l-2.747-16.488H339.817z M374.341,434.907h-44.005v-33.01h15.245l13.764-82.607h-29.011
			V115.639h44.006V434.907z M313.793,401.897v33.01h-44.017v-33.01H313.793z M253.232,401.897v33.01h-93.559v-33.01H253.232z
			 M143.13,401.897v33.01H99.124v-33.01H143.13z M374.342,495.456H38.563v-44.006h335.778V495.456z M374.342,44.039H258.736v35.8
			h16.544V60.582h99.063v38.513H38.563V60.582h99.063v19.257h16.544v-35.8H38.563V16.544h335.778V44.039z M434.902,297.276h-44.017
			v-16.488h44.017V297.276z M434.902,264.244h-44.017v-38.502h44.017V264.244z M473.439,263.406h-0.001
			c0,0.319-0.011,0.597-0.026,0.838h-21.964v-55.046h-60.56V16.544h82.484c0.039,0.298,0.064,0.59,0.068,0.838V263.406z"/>
	</g>
</g>
<g>
</g>
<g>
</g>
<g>
</g>
<g>
</g>
<g>
</g>
<g>
</g>
<g>
</g>
<g>
</g>
<g>
</g>
<g>
</g>
<g>
</g>
<g>
</g>
<g>
</g>
<g>
</g>
<g>
</g>
</svg>
